PathFileType	4	(X/Y/Z)	TVC_39_BWA_03_walk_RCNL2025.trc
DataRate	CameraRate	NumFrames	NumMarkers	Units	OrigDataRate	OrigDataStartFrame	OrigNumFrames
100	100	8	27	mm	100	883	1176
Frame#	Time	R_Shoulder			L_Shoulder			C7			J_Notch			R_Elbow			L_Elbow			R_Wrist			L_Wrist			R_Asis			L_Asis			R_Psis			L_Psis			Sacral			Thoracic			Sternum			R_Thigh_Lateral			R_Knee_Lateral			R_Shank_Lateral			R_Ankle_Lateral			R_Heel			R_Toe			L_Thigh_Lateral			L_Knee_Lateral			L_Shank_Lateral			L_Ankle_Lateral			L_Heel			L_Toe		
		X1	Y1	Z1	X2	Y2	Z2	X3	Y3	Z3	X4	Y4	Z4	X5	Y5	Z5	X6	Y6	Z6	X7	Y7	Z7	X8	Y8	Z8	X9	Y9	Z9	X10	Y10	Z10	X11	Y11	Z11	X12	Y12	Z12	X13	Y13	Z13	X14	Y14	Z14	X15	Y15	Z15	X16	Y16	Z16	X17	Y17	Z17	X18	Y18	Z18	X19	Y19	Z19	X20	Y20	Z20	X21	Y21	Z21	X22	Y22	Z22	X23	Y23	Z23	X24	Y24	Z24	X25	Y25	Z25	X26	Y26	Z26	X27	Y27	Z27
883	8.82000000	980.455811	1460.172974	101.846565	1019.106628	1480.829956	-264.004608	961.772339	1533.857666	-86.926743	1114.464233	1415.373901	-79.163040	1009.484985	1141.671387	215.521103	978.315674	1174.392578	-399.671143	1142.609680	923.496246	197.316429	1078.004272	932.463806	-368.244949	1078.210327	934.075012	35.664856	1088.583252	931.844971	-257.703552	882.593384	959.291504	-61.554996	884.726685	951.811279	-168.883820	883.660034	955.551392	-115.219408	883.545959	1204.218140	-114.509811	1163.730103	1255.555298	-72.804863	1053.519531	737.860657	115.731773	1095.984009	475.483887	45.085644	1029.191528	295.864655	101.208839	1009.449890	74.687981	0.402242	969.872070	59.312450	-55.799026	1151.868042	43.023991	17.148563	1011.010742	673.224792	-328.624084	995.322388	449.830566	-250.093521	914.792419	330.259186	-309.536987	811.996765	83.466263	-225.756485	761.448975	76.212662	-172.359238	946.585754	40.338184	-230.397217
884	8.83000000	983.373962	1460.203247	103.839699	1022.371094	1481.355713	-261.850555	964.938049	1534.067871	-84.861481	1117.504517	1415.455566	-77.050064	1012.681824	1141.728638	217.403915	981.379028	1175.288330	-398.178192	1146.554138	924.009949	198.884155	1080.920349	933.283417	-366.890289	1080.662598	934.117004	36.886715	1091.123535	932.191040	-256.395844	885.077820	959.618835	-60.431885	887.285645	952.100586	-167.793839	886.181732	955.859711	-114.112862	886.351929	1204.531494	-112.978828	1166.598877	1255.572266	-70.846291	1055.808716	737.736450	116.376610	1096.919922	475.255615	45.405869	1029.795410	295.747650	101.395126	1009.511475	74.655518	0.384148	969.890686	59.340370	-55.821583	1151.858276	43.019627	17.141472	1014.449707	673.601196	-327.826691	1000.389221	449.836792	-250.239548	918.212646	331.346313	-309.424286	812.795898	85.536339	-225.940109	762.281372	78.849976	-172.521118	946.948120	40.242908	-230.437714
885	8.84000000	986.314087	1460.246460	105.823822	1025.580933	1481.895630	-259.694763	968.104980	1534.276611	-82.807304	1120.532593	1415.524536	-74.962288	1015.838989	1141.807373	219.304459	984.354675	1176.205200	-396.678680	1150.412903	924.525482	200.402451	1083.794739	934.126831	-365.607193	1083.054810	934.148560	38.076668	1093.595337	932.547485	-255.109436	887.500427	959.967957	-59.331242	889.786316	952.401794	-166.735001	888.643372	956.184875	-113.033121	889.104797	1204.863159	-111.421715	1169.439209	1255.571533	-68.915756	1057.782837	737.595093	117.026100	1097.717041	475.058716	45.711014	1030.266113	295.650757	101.564018	1009.552002	74.621056	0.368100	969.902954	59.359909	-55.845280	1151.840820	43.015179	17.138508	1018.134521	673.976196	-327.152466	1006.021301	449.848358	-250.555893	922.102966	332.528748	-309.428162	813.784302	87.918564	-226.192139	763.311829	81.897011	-172.737183	947.298828	40.119091	-230.466171
886	8.85000000	989.277954	1460.293945	107.796501	1028.737793	1482.444092	-257.539276	971.273621	1534.477417	-80.765991	1123.549438	1415.574097	-72.902878	1018.957031	1141.899780	221.223785	987.239807	1177.138916	-395.176147	1154.184265	925.033752	201.874443	1086.627136	934.990509	-364.393173	1085.386475	934.165405	39.232941	1095.994385	932.903931	-253.846298	889.860107	960.334473	-58.253540	892.225708	952.708191	-165.707443	891.042908	956.521332	-111.980492	891.804810	1205.207886	-109.842293	1172.251709	1255.546021	-67.017532	1059.448120	737.443237	117.688309	1098.378662	474.890869	46.011692	1030.602051	295.567841	101.720490	1009.570618	74.582405	0.354668	969.908020	59.370319	-55.868958	1151.815308	43.010147	17.140238	1022.085571	674.341858	-326.612244	1012.249512	449.869629	-251.051971	926.532166	333.806427	-309.569336	815.006042	90.648781	-226.539490	764.581238	85.408119	-173.040375	947.635010	39.974575	-230.477448
887	8.86000000	992.267090	1460.336548	109.754608	1031.844482	1482.994751	-255.387131	974.444641	1534.664062	-78.739937	1126.555542	1415.597412	-70.875320	1022.036926	1141.997681	223.161972	990.033447	1178.083862	-393.675171	1157.867004	925.525085	203.303963	1089.417114	935.869415	-363.245010	1087.656982	934.163269	40.354370	1098.317139	933.249512	-252.608337	892.156067	960.712708	-57.198845	894.600891	953.012146	-164.710739	893.378479	956.862427	-110.954792	894.452454	1205.559814	-108.245445	1175.036865	1255.488525	-65.156059	1060.830078	737.289246	118.370407	1098.913940	474.748383	46.318703	1030.807983	295.491577	101.870338	1009.567749	74.537704	0.344523	969.905334	59.371349	-55.891048	1151.781738	43.004177	17.147018	1026.320312	674.693604	-326.214294	1019.095825	449.907928	-251.732254	931.572266	335.175598	-309.867310	816.510071	93.759735	-227.011459	766.135010	89.434776	-173.468369	947.959656	39.823448	-230.465790
888	8.87000000	995.282410	1460.364624	111.694328	1034.904907	1483.540039	-253.242493	977.618896	1534.829712	-76.732201	1129.552002	1415.587158	-68.883438	1025.079956	1142.092041	225.117859	992.736877	1179.033447	-392.181152	1161.460938	925.989288	204.695412	1092.164124	936.757080	-362.158890	1089.866333	934.137634	41.440365	1100.560669	933.572937	-251.397324	894.387878	961.096008	-56.166790	896.909241	953.305359	-163.743942	895.648560	957.200684	-109.955366	897.048767	1205.912842	-106.637039	1177.795410	1255.391113	-63.335995	1061.968506	737.141418	119.078842	1099.338257	474.626129	46.642643	1030.896606	295.413757	102.020088	1009.544739	74.485451	0.338374	969.894531	59.363281	-55.909660	1151.740479	42.997055	17.158995	1030.852539	675.030518	-325.963531	1026.571045	449.973663	-252.595276	937.294373	336.627960	-310.337952	818.348938	97.277534	-227.637009	768.021912	94.020187	-174.060486	948.284668	39.686737	-230.425735
889	8.88000000	998.324280	1460.368774	113.611198	1037.923828	1484.072021	-251.110504	980.796936	1534.967896	-74.746483	1132.539551	1415.535889	-66.931351	1028.088013	1142.173828	227.089050	995.352966	1179.979614	-390.700317	1164.966309	926.415802	206.053650	1094.867615	937.645477	-361.130630	1092.014404	934.083862	42.490891	1102.722900	933.862915	-250.214951	896.555481	961.476807	-55.156612	899.148560	953.579224	-162.805542	897.852020	957.528015	-108.981077	899.595215	1206.260620	-105.023743	1180.527832	1255.246338	-61.562084	1062.913208	737.006897	119.819237	1099.673340	474.517700	46.993580	1030.887207	295.325806	102.176819	1009.504150	74.424545	0.336883	969.875732	59.346951	-55.922695	1151.692383	42.988712	17.176134	1035.691772	675.355469	-325.860626	1034.673096	450.080078	-253.632843	943.763062	338.150238	-310.991364	820.576843	101.217712	-228.441544	770.292542	99.192863	-174.853653	948.633911	39.592621	-230.353241
890	8.89000000	1001.392517	1460.339478	115.500130	1040.906982	1484.582031	-248.997345	983.979431	1535.072144	-72.787132	1135.518921	1415.436523	-65.023499	1031.063354	1142.233887	229.071716	997.886780	1180.913330	-389.239349	1168.383850	926.793976	207.383789	1097.526917	938.525238	-360.155746	1094.101562	933.997253	43.506374	1104.802979	934.108582	-249.062912	898.659241	961.847046	-54.167221	901.317200	953.825073	-161.893631	899.988220	957.836060	-108.030426	902.093506	1206.596802	-103.412964	1183.234741	1255.046753	-59.839134	1063.719849	736.889771	120.595924	1099.946655	474.415436	47.380600	1030.806396	295.219025	102.347786	1009.449463	74.354324	0.340588	969.849304	59.323738	-55.928001	1151.638428	42.979179	17.198252	1040.841919	675.674866	-325.901093	1043.385010	450.242920	-254.829575	951.029419	339.724457	-311.829437	823.247375	105.581131	-229.443512	772.997192	104.959312	-175.877655	949.045959	39.576015	-230.247375
